<mxfile host="app.diagrams.net" agent="Mozilla/5.0 (Windows NT 10.0; Win64; x64) AppleWebKit/537.36 (KHTML, like Gecko) Chrome/131.0.0.0 Safari/537.36 Edg/131.0.0.0" version="25.0.3">
  <diagram id="C5RBs43oDa-KdzZeNtuy" name="Page-1">
    <mxGraphModel dx="2412" dy="415" grid="1" gridSize="10" guides="1" tooltips="1" connect="1" arrows="1" fold="1" page="1" pageScale="1" pageWidth="827" pageHeight="1169" math="0" shadow="0">
      <root>
        <mxCell id="WIyWlLk6GJQsqaUBKTNV-0" />
        <mxCell id="WIyWlLk6GJQsqaUBKTNV-1" parent="WIyWlLk6GJQsqaUBKTNV-0" />
        <mxCell id="mvioNwK95yMqdUQ73LqQ-36" value="" style="swimlane;fontFamily=Sarabun;fontSource=https%3A%2F%2Ffonts.googleapis.com%2Fcss%3Ffamily%3DSarabun;" parent="WIyWlLk6GJQsqaUBKTNV-1" vertex="1">
          <mxGeometry x="-990" width="3930" height="2980" as="geometry" />
        </mxCell>
        <mxCell id="D4iVkZbgq93BNmRAAPy4-9" style="edgeStyle=orthogonalEdgeStyle;rounded=0;orthogonalLoop=1;jettySize=auto;html=1;entryX=0.5;entryY=0;entryDx=0;entryDy=0;" edge="1" parent="mvioNwK95yMqdUQ73LqQ-36" source="mvioNwK95yMqdUQ73LqQ-35" target="D4iVkZbgq93BNmRAAPy4-7">
          <mxGeometry relative="1" as="geometry" />
        </mxCell>
        <mxCell id="mvioNwK95yMqdUQ73LqQ-35" value="&lt;font data-font-src=&quot;https://fonts.googleapis.com/css?family=Sarabun&quot; face=&quot;Sarabun&quot;&gt;Start&lt;/font&gt;" style="ellipse;whiteSpace=wrap;html=1;" parent="mvioNwK95yMqdUQ73LqQ-36" vertex="1">
          <mxGeometry x="622.5" y="30" width="130" height="30" as="geometry" />
        </mxCell>
        <mxCell id="D4iVkZbgq93BNmRAAPy4-76" style="edgeStyle=orthogonalEdgeStyle;rounded=0;orthogonalLoop=1;jettySize=auto;html=1;entryX=0.5;entryY=0;entryDx=0;entryDy=0;" edge="1" parent="mvioNwK95yMqdUQ73LqQ-36" source="D4iVkZbgq93BNmRAAPy4-0" target="D4iVkZbgq93BNmRAAPy4-74">
          <mxGeometry relative="1" as="geometry" />
        </mxCell>
        <mxCell id="D4iVkZbgq93BNmRAAPy4-0" value="Read Input number" style="shape=parallelogram;perimeter=parallelogramPerimeter;whiteSpace=wrap;html=1;fixedSize=1;" vertex="1" parent="mvioNwK95yMqdUQ73LqQ-36">
          <mxGeometry x="607.5" y="120" width="155" height="60" as="geometry" />
        </mxCell>
        <mxCell id="D4iVkZbgq93BNmRAAPy4-14" style="edgeStyle=orthogonalEdgeStyle;rounded=0;orthogonalLoop=1;jettySize=auto;html=1;entryX=0.5;entryY=0;entryDx=0;entryDy=0;" edge="1" parent="mvioNwK95yMqdUQ73LqQ-36" source="D4iVkZbgq93BNmRAAPy4-2" target="D4iVkZbgq93BNmRAAPy4-12">
          <mxGeometry relative="1" as="geometry" />
        </mxCell>
        <mxCell id="D4iVkZbgq93BNmRAAPy4-16" style="edgeStyle=orthogonalEdgeStyle;rounded=0;orthogonalLoop=1;jettySize=auto;html=1;" edge="1" parent="mvioNwK95yMqdUQ73LqQ-36" source="D4iVkZbgq93BNmRAAPy4-2">
          <mxGeometry relative="1" as="geometry">
            <mxPoint x="840" y="510.0000000000001" as="targetPoint" />
          </mxGeometry>
        </mxCell>
        <mxCell id="D4iVkZbgq93BNmRAAPy4-2" value="number &amp;gt;= 1000?" style="rhombus;whiteSpace=wrap;html=1;" vertex="1" parent="mvioNwK95yMqdUQ73LqQ-36">
          <mxGeometry x="630" y="340" width="110" height="120" as="geometry" />
        </mxCell>
        <mxCell id="D4iVkZbgq93BNmRAAPy4-4" value="Yes" style="text;html=1;align=center;verticalAlign=middle;resizable=0;points=[];autosize=1;strokeColor=none;fillColor=none;" vertex="1" parent="mvioNwK95yMqdUQ73LqQ-36">
          <mxGeometry x="596" y="440" width="40" height="30" as="geometry" />
        </mxCell>
        <mxCell id="D4iVkZbgq93BNmRAAPy4-5" value="No" style="text;html=1;align=center;verticalAlign=middle;resizable=0;points=[];autosize=1;strokeColor=none;fillColor=none;" vertex="1" parent="mvioNwK95yMqdUQ73LqQ-36">
          <mxGeometry x="750" y="380" width="40" height="30" as="geometry" />
        </mxCell>
        <mxCell id="D4iVkZbgq93BNmRAAPy4-7" value="int i = 0" style="rounded=0;whiteSpace=wrap;html=1;" vertex="1" parent="mvioNwK95yMqdUQ73LqQ-36">
          <mxGeometry x="627.5" y="70" width="120" height="30" as="geometry" />
        </mxCell>
        <mxCell id="D4iVkZbgq93BNmRAAPy4-10" style="edgeStyle=orthogonalEdgeStyle;rounded=0;orthogonalLoop=1;jettySize=auto;html=1;entryX=0.522;entryY=-0.002;entryDx=0;entryDy=0;entryPerimeter=0;" edge="1" parent="mvioNwK95yMqdUQ73LqQ-36" source="D4iVkZbgq93BNmRAAPy4-7" target="D4iVkZbgq93BNmRAAPy4-0">
          <mxGeometry relative="1" as="geometry" />
        </mxCell>
        <mxCell id="D4iVkZbgq93BNmRAAPy4-80" style="edgeStyle=orthogonalEdgeStyle;rounded=0;orthogonalLoop=1;jettySize=auto;html=1;" edge="1" parent="mvioNwK95yMqdUQ73LqQ-36" source="D4iVkZbgq93BNmRAAPy4-12">
          <mxGeometry relative="1" as="geometry">
            <mxPoint x="839" y="480" as="targetPoint" />
            <Array as="points">
              <mxPoint x="527" y="480" />
            </Array>
          </mxGeometry>
        </mxCell>
        <mxCell id="D4iVkZbgq93BNmRAAPy4-12" value="&#39;M&#39; to roman array[ i ]&lt;div&gt;then i++&lt;/div&gt;&lt;div&gt;number&amp;nbsp; -= 1000&lt;/div&gt;" style="rounded=0;whiteSpace=wrap;html=1;" vertex="1" parent="mvioNwK95yMqdUQ73LqQ-36">
          <mxGeometry x="460" y="449" width="120" height="60" as="geometry" />
        </mxCell>
        <mxCell id="D4iVkZbgq93BNmRAAPy4-18" style="edgeStyle=orthogonalEdgeStyle;rounded=0;orthogonalLoop=1;jettySize=auto;html=1;" edge="1" parent="mvioNwK95yMqdUQ73LqQ-36" source="D4iVkZbgq93BNmRAAPy4-17">
          <mxGeometry relative="1" as="geometry">
            <mxPoint x="839" y="690" as="targetPoint" />
          </mxGeometry>
        </mxCell>
        <mxCell id="D4iVkZbgq93BNmRAAPy4-20" style="edgeStyle=orthogonalEdgeStyle;rounded=0;orthogonalLoop=1;jettySize=auto;html=1;entryX=0.5;entryY=0;entryDx=0;entryDy=0;" edge="1" parent="mvioNwK95yMqdUQ73LqQ-36" source="D4iVkZbgq93BNmRAAPy4-17" target="D4iVkZbgq93BNmRAAPy4-19">
          <mxGeometry relative="1" as="geometry" />
        </mxCell>
        <mxCell id="D4iVkZbgq93BNmRAAPy4-17" value="number &amp;gt;= 900?" style="rhombus;whiteSpace=wrap;html=1;" vertex="1" parent="mvioNwK95yMqdUQ73LqQ-36">
          <mxGeometry x="784" y="509" width="110" height="120" as="geometry" />
        </mxCell>
        <mxCell id="D4iVkZbgq93BNmRAAPy4-44" style="edgeStyle=orthogonalEdgeStyle;rounded=0;orthogonalLoop=1;jettySize=auto;html=1;" edge="1" parent="mvioNwK95yMqdUQ73LqQ-36" source="D4iVkZbgq93BNmRAAPy4-19">
          <mxGeometry relative="1" as="geometry">
            <mxPoint x="1025" y="830" as="targetPoint" />
          </mxGeometry>
        </mxCell>
        <mxCell id="D4iVkZbgq93BNmRAAPy4-87" style="edgeStyle=orthogonalEdgeStyle;rounded=0;orthogonalLoop=1;jettySize=auto;html=1;" edge="1" parent="mvioNwK95yMqdUQ73LqQ-36" source="D4iVkZbgq93BNmRAAPy4-19" target="D4iVkZbgq93BNmRAAPy4-21">
          <mxGeometry relative="1" as="geometry" />
        </mxCell>
        <mxCell id="D4iVkZbgq93BNmRAAPy4-19" value="number &amp;gt;= 500?" style="rhombus;whiteSpace=wrap;html=1;" vertex="1" parent="mvioNwK95yMqdUQ73LqQ-36">
          <mxGeometry x="970" y="620" width="110" height="120" as="geometry" />
        </mxCell>
        <mxCell id="D4iVkZbgq93BNmRAAPy4-45" style="edgeStyle=orthogonalEdgeStyle;rounded=0;orthogonalLoop=1;jettySize=auto;html=1;" edge="1" parent="mvioNwK95yMqdUQ73LqQ-36" source="D4iVkZbgq93BNmRAAPy4-21">
          <mxGeometry relative="1" as="geometry">
            <mxPoint x="1265" y="1010" as="targetPoint" />
          </mxGeometry>
        </mxCell>
        <mxCell id="D4iVkZbgq93BNmRAAPy4-91" style="edgeStyle=orthogonalEdgeStyle;rounded=0;orthogonalLoop=1;jettySize=auto;html=1;entryX=0.5;entryY=0;entryDx=0;entryDy=0;" edge="1" parent="mvioNwK95yMqdUQ73LqQ-36" source="D4iVkZbgq93BNmRAAPy4-21" target="D4iVkZbgq93BNmRAAPy4-22">
          <mxGeometry relative="1" as="geometry">
            <Array as="points">
              <mxPoint x="1495" y="880" />
            </Array>
          </mxGeometry>
        </mxCell>
        <mxCell id="D4iVkZbgq93BNmRAAPy4-21" value="number &amp;gt;= 400?" style="rhombus;whiteSpace=wrap;html=1;" vertex="1" parent="mvioNwK95yMqdUQ73LqQ-36">
          <mxGeometry x="1210" y="840" width="110" height="120" as="geometry" />
        </mxCell>
        <mxCell id="D4iVkZbgq93BNmRAAPy4-47" style="edgeStyle=orthogonalEdgeStyle;rounded=0;orthogonalLoop=1;jettySize=auto;html=1;" edge="1" parent="mvioNwK95yMqdUQ73LqQ-36" source="D4iVkZbgq93BNmRAAPy4-22">
          <mxGeometry relative="1" as="geometry">
            <mxPoint x="1495" y="1140" as="targetPoint" />
          </mxGeometry>
        </mxCell>
        <mxCell id="D4iVkZbgq93BNmRAAPy4-96" style="edgeStyle=orthogonalEdgeStyle;rounded=0;orthogonalLoop=1;jettySize=auto;html=1;entryX=0.5;entryY=0;entryDx=0;entryDy=0;" edge="1" parent="mvioNwK95yMqdUQ73LqQ-36" source="D4iVkZbgq93BNmRAAPy4-22" target="D4iVkZbgq93BNmRAAPy4-23">
          <mxGeometry relative="1" as="geometry" />
        </mxCell>
        <mxCell id="D4iVkZbgq93BNmRAAPy4-22" value="number &amp;gt;= 100?" style="rhombus;whiteSpace=wrap;html=1;" vertex="1" parent="mvioNwK95yMqdUQ73LqQ-36">
          <mxGeometry x="1440" y="900" width="110" height="120" as="geometry" />
        </mxCell>
        <mxCell id="D4iVkZbgq93BNmRAAPy4-49" style="edgeStyle=orthogonalEdgeStyle;rounded=0;orthogonalLoop=1;jettySize=auto;html=1;" edge="1" parent="mvioNwK95yMqdUQ73LqQ-36" source="D4iVkZbgq93BNmRAAPy4-23">
          <mxGeometry relative="1" as="geometry">
            <mxPoint x="1735" y="1260" as="targetPoint" />
          </mxGeometry>
        </mxCell>
        <mxCell id="D4iVkZbgq93BNmRAAPy4-100" style="edgeStyle=orthogonalEdgeStyle;rounded=0;orthogonalLoop=1;jettySize=auto;html=1;" edge="1" parent="mvioNwK95yMqdUQ73LqQ-36" source="D4iVkZbgq93BNmRAAPy4-23" target="D4iVkZbgq93BNmRAAPy4-24">
          <mxGeometry relative="1" as="geometry" />
        </mxCell>
        <mxCell id="D4iVkZbgq93BNmRAAPy4-23" value="number &amp;gt;= 90?" style="rhombus;whiteSpace=wrap;html=1;" vertex="1" parent="mvioNwK95yMqdUQ73LqQ-36">
          <mxGeometry x="1680" y="1050" width="110" height="120" as="geometry" />
        </mxCell>
        <mxCell id="D4iVkZbgq93BNmRAAPy4-51" style="edgeStyle=orthogonalEdgeStyle;rounded=0;orthogonalLoop=1;jettySize=auto;html=1;" edge="1" parent="mvioNwK95yMqdUQ73LqQ-36" source="D4iVkZbgq93BNmRAAPy4-24">
          <mxGeometry relative="1" as="geometry">
            <mxPoint x="2015" y="1420.0000000000002" as="targetPoint" />
          </mxGeometry>
        </mxCell>
        <mxCell id="D4iVkZbgq93BNmRAAPy4-176" style="edgeStyle=orthogonalEdgeStyle;rounded=0;orthogonalLoop=1;jettySize=auto;html=1;" edge="1" parent="mvioNwK95yMqdUQ73LqQ-36" source="D4iVkZbgq93BNmRAAPy4-24" target="D4iVkZbgq93BNmRAAPy4-25">
          <mxGeometry relative="1" as="geometry" />
        </mxCell>
        <mxCell id="D4iVkZbgq93BNmRAAPy4-24" value="number &amp;gt;= 50?" style="rhombus;whiteSpace=wrap;html=1;" vertex="1" parent="mvioNwK95yMqdUQ73LqQ-36">
          <mxGeometry x="1960" y="1180" width="110" height="120" as="geometry" />
        </mxCell>
        <mxCell id="D4iVkZbgq93BNmRAAPy4-53" style="edgeStyle=orthogonalEdgeStyle;rounded=0;orthogonalLoop=1;jettySize=auto;html=1;" edge="1" parent="mvioNwK95yMqdUQ73LqQ-36" source="D4iVkZbgq93BNmRAAPy4-25">
          <mxGeometry relative="1" as="geometry">
            <mxPoint x="2284.9999999999995" y="1530.0000000000002" as="targetPoint" />
          </mxGeometry>
        </mxCell>
        <mxCell id="D4iVkZbgq93BNmRAAPy4-181" style="edgeStyle=orthogonalEdgeStyle;rounded=0;orthogonalLoop=1;jettySize=auto;html=1;" edge="1" parent="mvioNwK95yMqdUQ73LqQ-36" source="D4iVkZbgq93BNmRAAPy4-25" target="D4iVkZbgq93BNmRAAPy4-26">
          <mxGeometry relative="1" as="geometry" />
        </mxCell>
        <mxCell id="D4iVkZbgq93BNmRAAPy4-25" value="number &amp;gt;= 40?" style="rhombus;whiteSpace=wrap;html=1;" vertex="1" parent="mvioNwK95yMqdUQ73LqQ-36">
          <mxGeometry x="2230" y="1310" width="110" height="120" as="geometry" />
        </mxCell>
        <mxCell id="D4iVkZbgq93BNmRAAPy4-55" style="edgeStyle=orthogonalEdgeStyle;rounded=0;orthogonalLoop=1;jettySize=auto;html=1;" edge="1" parent="mvioNwK95yMqdUQ73LqQ-36" source="D4iVkZbgq93BNmRAAPy4-26">
          <mxGeometry relative="1" as="geometry">
            <mxPoint x="2534.9999999999995" y="1630.0000000000002" as="targetPoint" />
          </mxGeometry>
        </mxCell>
        <mxCell id="D4iVkZbgq93BNmRAAPy4-26" value="number &amp;gt;= 10?" style="rhombus;whiteSpace=wrap;html=1;" vertex="1" parent="mvioNwK95yMqdUQ73LqQ-36">
          <mxGeometry x="2480" y="1450" width="110" height="120" as="geometry" />
        </mxCell>
        <mxCell id="D4iVkZbgq93BNmRAAPy4-82" style="edgeStyle=orthogonalEdgeStyle;rounded=0;orthogonalLoop=1;jettySize=auto;html=1;entryX=0.5;entryY=0;entryDx=0;entryDy=0;" edge="1" parent="mvioNwK95yMqdUQ73LqQ-36" source="D4iVkZbgq93BNmRAAPy4-35" target="D4iVkZbgq93BNmRAAPy4-2">
          <mxGeometry relative="1" as="geometry" />
        </mxCell>
        <mxCell id="D4iVkZbgq93BNmRAAPy4-35" value="n &amp;gt; 0" style="rhombus;whiteSpace=wrap;html=1;" vertex="1" parent="mvioNwK95yMqdUQ73LqQ-36">
          <mxGeometry x="645" y="240" width="80" height="80" as="geometry" />
        </mxCell>
        <mxCell id="D4iVkZbgq93BNmRAAPy4-81" style="edgeStyle=orthogonalEdgeStyle;rounded=0;orthogonalLoop=1;jettySize=auto;html=1;" edge="1" parent="mvioNwK95yMqdUQ73LqQ-36" source="D4iVkZbgq93BNmRAAPy4-42">
          <mxGeometry relative="1" as="geometry">
            <mxPoint x="1020" y="600" as="targetPoint" />
            <Array as="points">
              <mxPoint x="935" y="720" />
              <mxPoint x="935" y="600" />
            </Array>
          </mxGeometry>
        </mxCell>
        <mxCell id="D4iVkZbgq93BNmRAAPy4-42" value="&#39;CM&#39; to roman array[ i ]&lt;div&gt;then i++&lt;/div&gt;&lt;div&gt;number&amp;nbsp; -= 900&lt;/div&gt;" style="rounded=0;whiteSpace=wrap;html=1;" vertex="1" parent="mvioNwK95yMqdUQ73LqQ-36">
          <mxGeometry x="770" y="690" width="129" height="60" as="geometry" />
        </mxCell>
        <mxCell id="D4iVkZbgq93BNmRAAPy4-88" style="edgeStyle=orthogonalEdgeStyle;rounded=0;orthogonalLoop=1;jettySize=auto;html=1;exitX=1;exitY=0.5;exitDx=0;exitDy=0;" edge="1" parent="mvioNwK95yMqdUQ73LqQ-36" source="D4iVkZbgq93BNmRAAPy4-43">
          <mxGeometry relative="1" as="geometry">
            <mxPoint x="1270" y="780" as="targetPoint" />
            <mxPoint x="1029.9999999999998" y="840.0000000000001" as="sourcePoint" />
            <Array as="points">
              <mxPoint x="1120" y="860" />
              <mxPoint x="1120" y="780" />
            </Array>
          </mxGeometry>
        </mxCell>
        <mxCell id="D4iVkZbgq93BNmRAAPy4-43" value="&#39;D&#39; to roman array[ i ]&lt;div&gt;then i++&lt;/div&gt;&lt;div&gt;number&amp;nbsp; -= 500&lt;/div&gt;" style="rounded=0;whiteSpace=wrap;html=1;" vertex="1" parent="mvioNwK95yMqdUQ73LqQ-36">
          <mxGeometry x="960.5" y="830" width="129" height="60" as="geometry" />
        </mxCell>
        <mxCell id="D4iVkZbgq93BNmRAAPy4-92" style="edgeStyle=orthogonalEdgeStyle;rounded=0;orthogonalLoop=1;jettySize=auto;html=1;" edge="1" parent="mvioNwK95yMqdUQ73LqQ-36" source="D4iVkZbgq93BNmRAAPy4-46">
          <mxGeometry relative="1" as="geometry">
            <mxPoint x="1400" y="880" as="targetPoint" />
          </mxGeometry>
        </mxCell>
        <mxCell id="D4iVkZbgq93BNmRAAPy4-46" value="&#39;CD&#39; to roman array[ i ]&lt;div&gt;then i++&lt;/div&gt;&lt;div&gt;number&amp;nbsp; -= 400&lt;/div&gt;" style="rounded=0;whiteSpace=wrap;html=1;" vertex="1" parent="mvioNwK95yMqdUQ73LqQ-36">
          <mxGeometry x="1200.5" y="1010" width="129" height="60" as="geometry" />
        </mxCell>
        <mxCell id="D4iVkZbgq93BNmRAAPy4-97" style="edgeStyle=orthogonalEdgeStyle;rounded=0;orthogonalLoop=1;jettySize=auto;html=1;" edge="1" parent="mvioNwK95yMqdUQ73LqQ-36" source="D4iVkZbgq93BNmRAAPy4-48">
          <mxGeometry relative="1" as="geometry">
            <mxPoint x="1650" y="960" as="targetPoint" />
          </mxGeometry>
        </mxCell>
        <mxCell id="D4iVkZbgq93BNmRAAPy4-48" value="&#39;C&#39; to roman array[ i ]&lt;div&gt;then i++&lt;/div&gt;&lt;div&gt;number&amp;nbsp; -= 100&lt;/div&gt;" style="rounded=0;whiteSpace=wrap;html=1;" vertex="1" parent="mvioNwK95yMqdUQ73LqQ-36">
          <mxGeometry x="1430.5" y="1140" width="129" height="60" as="geometry" />
        </mxCell>
        <mxCell id="D4iVkZbgq93BNmRAAPy4-101" style="edgeStyle=orthogonalEdgeStyle;rounded=0;orthogonalLoop=1;jettySize=auto;html=1;" edge="1" parent="mvioNwK95yMqdUQ73LqQ-36" source="D4iVkZbgq93BNmRAAPy4-50">
          <mxGeometry relative="1" as="geometry">
            <mxPoint x="1900" y="1110" as="targetPoint" />
          </mxGeometry>
        </mxCell>
        <mxCell id="D4iVkZbgq93BNmRAAPy4-50" value="&#39;XC&#39; to roman array[ i ]&lt;div&gt;then i++&lt;/div&gt;&lt;div&gt;number&amp;nbsp; -= 90&lt;/div&gt;" style="rounded=0;whiteSpace=wrap;html=1;" vertex="1" parent="mvioNwK95yMqdUQ73LqQ-36">
          <mxGeometry x="1670.5" y="1260" width="129" height="60" as="geometry" />
        </mxCell>
        <mxCell id="D4iVkZbgq93BNmRAAPy4-177" style="edgeStyle=orthogonalEdgeStyle;rounded=0;orthogonalLoop=1;jettySize=auto;html=1;" edge="1" parent="mvioNwK95yMqdUQ73LqQ-36" source="D4iVkZbgq93BNmRAAPy4-52">
          <mxGeometry relative="1" as="geometry">
            <mxPoint x="2170" y="1240" as="targetPoint" />
          </mxGeometry>
        </mxCell>
        <mxCell id="D4iVkZbgq93BNmRAAPy4-52" value="&#39;L&#39; to roman array[ i ]&lt;div&gt;then i++&lt;/div&gt;&lt;div&gt;number&amp;nbsp; -= 50&lt;/div&gt;" style="rounded=0;whiteSpace=wrap;html=1;" vertex="1" parent="mvioNwK95yMqdUQ73LqQ-36">
          <mxGeometry x="1950.5" y="1420" width="129" height="60" as="geometry" />
        </mxCell>
        <mxCell id="D4iVkZbgq93BNmRAAPy4-182" style="edgeStyle=orthogonalEdgeStyle;rounded=0;orthogonalLoop=1;jettySize=auto;html=1;" edge="1" parent="mvioNwK95yMqdUQ73LqQ-36" source="D4iVkZbgq93BNmRAAPy4-54">
          <mxGeometry relative="1" as="geometry">
            <mxPoint x="2420" y="1370" as="targetPoint" />
          </mxGeometry>
        </mxCell>
        <mxCell id="D4iVkZbgq93BNmRAAPy4-54" value="&#39;XL&#39; to roman array[ i ]&lt;div&gt;then i++&lt;/div&gt;&lt;div&gt;number&amp;nbsp; -= 40&lt;/div&gt;" style="rounded=0;whiteSpace=wrap;html=1;" vertex="1" parent="mvioNwK95yMqdUQ73LqQ-36">
          <mxGeometry x="2220.5" y="1530" width="129" height="60" as="geometry" />
        </mxCell>
        <mxCell id="D4iVkZbgq93BNmRAAPy4-187" style="edgeStyle=orthogonalEdgeStyle;rounded=0;orthogonalLoop=1;jettySize=auto;html=1;" edge="1" parent="mvioNwK95yMqdUQ73LqQ-36" source="D4iVkZbgq93BNmRAAPy4-56">
          <mxGeometry relative="1" as="geometry">
            <mxPoint x="2680" y="1510" as="targetPoint" />
          </mxGeometry>
        </mxCell>
        <mxCell id="D4iVkZbgq93BNmRAAPy4-56" value="&#39;X&#39; to roman array[ i ]&lt;div&gt;then i++&lt;/div&gt;&lt;div&gt;number&amp;nbsp; -= 10&lt;/div&gt;" style="rounded=0;whiteSpace=wrap;html=1;" vertex="1" parent="mvioNwK95yMqdUQ73LqQ-36">
          <mxGeometry x="2470.5" y="1630" width="129" height="60" as="geometry" />
        </mxCell>
        <mxCell id="D4iVkZbgq93BNmRAAPy4-61" style="edgeStyle=orthogonalEdgeStyle;rounded=0;orthogonalLoop=1;jettySize=auto;html=1;" edge="1" parent="mvioNwK95yMqdUQ73LqQ-36" source="D4iVkZbgq93BNmRAAPy4-30">
          <mxGeometry relative="1" as="geometry">
            <mxPoint x="3095" y="1940" as="targetPoint" />
          </mxGeometry>
        </mxCell>
        <mxCell id="D4iVkZbgq93BNmRAAPy4-198" style="edgeStyle=orthogonalEdgeStyle;rounded=0;orthogonalLoop=1;jettySize=auto;html=1;entryX=0.5;entryY=0;entryDx=0;entryDy=0;" edge="1" parent="mvioNwK95yMqdUQ73LqQ-36" source="D4iVkZbgq93BNmRAAPy4-30" target="D4iVkZbgq93BNmRAAPy4-33">
          <mxGeometry relative="1" as="geometry" />
        </mxCell>
        <mxCell id="D4iVkZbgq93BNmRAAPy4-30" value="number &amp;gt;= 5?" style="rhombus;whiteSpace=wrap;html=1;" vertex="1" parent="mvioNwK95yMqdUQ73LqQ-36">
          <mxGeometry x="3040" y="1720" width="110" height="120" as="geometry" />
        </mxCell>
        <mxCell id="D4iVkZbgq93BNmRAAPy4-193" style="edgeStyle=orthogonalEdgeStyle;rounded=0;orthogonalLoop=1;jettySize=auto;html=1;" edge="1" parent="mvioNwK95yMqdUQ73LqQ-36" source="D4iVkZbgq93BNmRAAPy4-59">
          <mxGeometry relative="1" as="geometry">
            <mxPoint x="2940" y="1630" as="targetPoint" />
          </mxGeometry>
        </mxCell>
        <mxCell id="D4iVkZbgq93BNmRAAPy4-59" value="&#39;IX&#39; to roman array[ i ]&lt;div&gt;then i++&lt;/div&gt;&lt;div&gt;number&amp;nbsp; -= 9&lt;/div&gt;" style="rounded=0;whiteSpace=wrap;html=1;" vertex="1" parent="mvioNwK95yMqdUQ73LqQ-36">
          <mxGeometry x="2720" y="1840" width="129" height="60" as="geometry" />
        </mxCell>
        <mxCell id="D4iVkZbgq93BNmRAAPy4-199" style="edgeStyle=orthogonalEdgeStyle;rounded=0;orthogonalLoop=1;jettySize=auto;html=1;" edge="1" parent="mvioNwK95yMqdUQ73LqQ-36" source="D4iVkZbgq93BNmRAAPy4-62">
          <mxGeometry relative="1" as="geometry">
            <mxPoint x="3370" y="1970" as="targetPoint" />
          </mxGeometry>
        </mxCell>
        <mxCell id="D4iVkZbgq93BNmRAAPy4-62" value="&#39;V&#39; to roman array[ i ]&lt;div&gt;then i++&lt;/div&gt;&lt;div&gt;number&amp;nbsp; -= 5&lt;/div&gt;" style="rounded=0;whiteSpace=wrap;html=1;" vertex="1" parent="mvioNwK95yMqdUQ73LqQ-36">
          <mxGeometry x="3030.5" y="1940" width="129" height="60" as="geometry" />
        </mxCell>
        <mxCell id="D4iVkZbgq93BNmRAAPy4-65" style="edgeStyle=orthogonalEdgeStyle;rounded=0;orthogonalLoop=1;jettySize=auto;html=1;" edge="1" parent="mvioNwK95yMqdUQ73LqQ-36" source="D4iVkZbgq93BNmRAAPy4-33">
          <mxGeometry relative="1" as="geometry">
            <mxPoint x="3375" y="2240" as="targetPoint" />
          </mxGeometry>
        </mxCell>
        <mxCell id="D4iVkZbgq93BNmRAAPy4-200" style="edgeStyle=orthogonalEdgeStyle;rounded=0;orthogonalLoop=1;jettySize=auto;html=1;" edge="1" parent="mvioNwK95yMqdUQ73LqQ-36" source="D4iVkZbgq93BNmRAAPy4-33" target="D4iVkZbgq93BNmRAAPy4-34">
          <mxGeometry relative="1" as="geometry" />
        </mxCell>
        <mxCell id="D4iVkZbgq93BNmRAAPy4-33" value="number &amp;gt;= 4?" style="rhombus;whiteSpace=wrap;html=1;" vertex="1" parent="mvioNwK95yMqdUQ73LqQ-36">
          <mxGeometry x="3320" y="2010" width="110" height="120" as="geometry" />
        </mxCell>
        <mxCell id="D4iVkZbgq93BNmRAAPy4-70" style="edgeStyle=orthogonalEdgeStyle;rounded=0;orthogonalLoop=1;jettySize=auto;html=1;" edge="1" parent="mvioNwK95yMqdUQ73LqQ-36" source="D4iVkZbgq93BNmRAAPy4-34">
          <mxGeometry relative="1" as="geometry">
            <mxPoint x="3675" y="2420" as="targetPoint" />
          </mxGeometry>
        </mxCell>
        <mxCell id="D4iVkZbgq93BNmRAAPy4-73" style="edgeStyle=orthogonalEdgeStyle;rounded=0;orthogonalLoop=1;jettySize=auto;html=1;entryX=0.5;entryY=0;entryDx=0;entryDy=0;" edge="1" parent="mvioNwK95yMqdUQ73LqQ-36" source="D4iVkZbgq93BNmRAAPy4-74" target="D4iVkZbgq93BNmRAAPy4-35">
          <mxGeometry relative="1" as="geometry" />
        </mxCell>
        <mxCell id="D4iVkZbgq93BNmRAAPy4-34" value="number &amp;gt;= 1?" style="rhombus;whiteSpace=wrap;html=1;" vertex="1" parent="mvioNwK95yMqdUQ73LqQ-36">
          <mxGeometry x="3620" y="2210" width="110" height="120" as="geometry" />
        </mxCell>
        <mxCell id="D4iVkZbgq93BNmRAAPy4-203" style="edgeStyle=orthogonalEdgeStyle;rounded=0;orthogonalLoop=1;jettySize=auto;html=1;" edge="1" parent="mvioNwK95yMqdUQ73LqQ-36" source="D4iVkZbgq93BNmRAAPy4-66">
          <mxGeometry relative="1" as="geometry">
            <mxPoint x="3580" y="2070" as="targetPoint" />
          </mxGeometry>
        </mxCell>
        <mxCell id="D4iVkZbgq93BNmRAAPy4-66" value="&#39;IV&#39; to roman array[ i ]&lt;div&gt;then i++&lt;/div&gt;&lt;div&gt;number&amp;nbsp; -= 4&lt;/div&gt;" style="rounded=0;whiteSpace=wrap;html=1;" vertex="1" parent="mvioNwK95yMqdUQ73LqQ-36">
          <mxGeometry x="3310.5" y="2240" width="129" height="60" as="geometry" />
        </mxCell>
        <mxCell id="D4iVkZbgq93BNmRAAPy4-204" style="edgeStyle=orthogonalEdgeStyle;rounded=0;orthogonalLoop=1;jettySize=auto;html=1;" edge="1" parent="mvioNwK95yMqdUQ73LqQ-36" source="D4iVkZbgq93BNmRAAPy4-67">
          <mxGeometry relative="1" as="geometry">
            <mxPoint x="3850" y="2270" as="targetPoint" />
          </mxGeometry>
        </mxCell>
        <mxCell id="D4iVkZbgq93BNmRAAPy4-67" value="&#39;I&#39; to roman array[ i ]&lt;div&gt;then i++&lt;/div&gt;&lt;div&gt;number&amp;nbsp; -= 1&lt;/div&gt;" style="rounded=0;whiteSpace=wrap;html=1;" vertex="1" parent="mvioNwK95yMqdUQ73LqQ-36">
          <mxGeometry x="3610.5" y="2420" width="129" height="60" as="geometry" />
        </mxCell>
        <mxCell id="D4iVkZbgq93BNmRAAPy4-74" value="" style="ellipse;whiteSpace=wrap;html=1;aspect=fixed;" vertex="1" parent="mvioNwK95yMqdUQ73LqQ-36">
          <mxGeometry x="675" y="200" width="20" height="20" as="geometry" />
        </mxCell>
        <mxCell id="D4iVkZbgq93BNmRAAPy4-75" value="" style="edgeStyle=orthogonalEdgeStyle;rounded=0;orthogonalLoop=1;jettySize=auto;html=1;entryX=1.009;entryY=0.444;entryDx=0;entryDy=0;entryPerimeter=0;exitX=1;exitY=0.5;exitDx=0;exitDy=0;" edge="1" parent="mvioNwK95yMqdUQ73LqQ-36" source="D4iVkZbgq93BNmRAAPy4-34">
          <mxGeometry relative="1" as="geometry">
            <mxPoint x="3624.82" y="2270.54" as="sourcePoint" />
            <mxPoint x="695.0000000000001" y="209.42" as="targetPoint" />
            <Array as="points">
              <mxPoint x="4080" y="2270" />
              <mxPoint x="4080" y="210" />
            </Array>
          </mxGeometry>
        </mxCell>
        <mxCell id="D4iVkZbgq93BNmRAAPy4-84" value="Yes" style="text;html=1;align=center;verticalAlign=middle;resizable=0;points=[];autosize=1;strokeColor=none;fillColor=none;" vertex="1" parent="mvioNwK95yMqdUQ73LqQ-36">
          <mxGeometry x="980" y="730" width="40" height="30" as="geometry" />
        </mxCell>
        <mxCell id="D4iVkZbgq93BNmRAAPy4-85" value="No" style="text;html=1;align=center;verticalAlign=middle;resizable=0;points=[];autosize=1;strokeColor=none;fillColor=none;" vertex="1" parent="mvioNwK95yMqdUQ73LqQ-36">
          <mxGeometry x="899" y="530" width="40" height="30" as="geometry" />
        </mxCell>
        <mxCell id="D4iVkZbgq93BNmRAAPy4-86" value="No" style="text;html=1;align=center;verticalAlign=middle;resizable=0;points=[];autosize=1;strokeColor=none;fillColor=none;" vertex="1" parent="mvioNwK95yMqdUQ73LqQ-36">
          <mxGeometry x="1070" y="640" width="40" height="30" as="geometry" />
        </mxCell>
        <mxCell id="D4iVkZbgq93BNmRAAPy4-89" value="Yes" style="text;html=1;align=center;verticalAlign=middle;resizable=0;points=[];autosize=1;strokeColor=none;fillColor=none;" vertex="1" parent="mvioNwK95yMqdUQ73LqQ-36">
          <mxGeometry x="1210" y="930" width="40" height="30" as="geometry" />
        </mxCell>
        <mxCell id="D4iVkZbgq93BNmRAAPy4-90" value="No" style="text;html=1;align=center;verticalAlign=middle;resizable=0;points=[];autosize=1;strokeColor=none;fillColor=none;" vertex="1" parent="mvioNwK95yMqdUQ73LqQ-36">
          <mxGeometry x="1289.5" y="830" width="40" height="30" as="geometry" />
        </mxCell>
        <mxCell id="D4iVkZbgq93BNmRAAPy4-93" value="Yes" style="text;html=1;align=center;verticalAlign=middle;resizable=0;points=[];autosize=1;strokeColor=none;fillColor=none;" vertex="1" parent="mvioNwK95yMqdUQ73LqQ-36">
          <mxGeometry x="1450" y="1010" width="40" height="30" as="geometry" />
        </mxCell>
        <mxCell id="D4iVkZbgq93BNmRAAPy4-94" value="No" style="text;html=1;align=center;verticalAlign=middle;resizable=0;points=[];autosize=1;strokeColor=none;fillColor=none;" vertex="1" parent="mvioNwK95yMqdUQ73LqQ-36">
          <mxGeometry x="1550" y="920" width="40" height="30" as="geometry" />
        </mxCell>
        <mxCell id="D4iVkZbgq93BNmRAAPy4-98" value="Yes" style="text;html=1;align=center;verticalAlign=middle;resizable=0;points=[];autosize=1;strokeColor=none;fillColor=none;" vertex="1" parent="mvioNwK95yMqdUQ73LqQ-36">
          <mxGeometry x="1670.5" y="1169" width="40" height="30" as="geometry" />
        </mxCell>
        <mxCell id="D4iVkZbgq93BNmRAAPy4-99" value="No" style="text;html=1;align=center;verticalAlign=middle;resizable=0;points=[];autosize=1;strokeColor=none;fillColor=none;" vertex="1" parent="mvioNwK95yMqdUQ73LqQ-36">
          <mxGeometry x="1780" y="1060" width="40" height="30" as="geometry" />
        </mxCell>
        <mxCell id="D4iVkZbgq93BNmRAAPy4-174" value="Yes" style="text;html=1;align=center;verticalAlign=middle;resizable=0;points=[];autosize=1;strokeColor=none;fillColor=none;" vertex="1" parent="mvioNwK95yMqdUQ73LqQ-36">
          <mxGeometry x="1980" y="1320" width="40" height="30" as="geometry" />
        </mxCell>
        <mxCell id="D4iVkZbgq93BNmRAAPy4-175" value="No" style="text;html=1;align=center;verticalAlign=middle;resizable=0;points=[];autosize=1;strokeColor=none;fillColor=none;" vertex="1" parent="mvioNwK95yMqdUQ73LqQ-36">
          <mxGeometry x="2060" y="1180" width="40" height="30" as="geometry" />
        </mxCell>
        <mxCell id="D4iVkZbgq93BNmRAAPy4-178" value="Yes" style="text;html=1;align=center;verticalAlign=middle;resizable=0;points=[];autosize=1;strokeColor=none;fillColor=none;" vertex="1" parent="mvioNwK95yMqdUQ73LqQ-36">
          <mxGeometry x="2230" y="1430" width="40" height="30" as="geometry" />
        </mxCell>
        <mxCell id="D4iVkZbgq93BNmRAAPy4-179" value="No" style="text;html=1;align=center;verticalAlign=middle;resizable=0;points=[];autosize=1;strokeColor=none;fillColor=none;" vertex="1" parent="mvioNwK95yMqdUQ73LqQ-36">
          <mxGeometry x="2360" y="1310" width="40" height="30" as="geometry" />
        </mxCell>
        <mxCell id="D4iVkZbgq93BNmRAAPy4-184" value="Yes" style="text;html=1;align=center;verticalAlign=middle;resizable=0;points=[];autosize=1;strokeColor=none;fillColor=none;" vertex="1" parent="mvioNwK95yMqdUQ73LqQ-36">
          <mxGeometry x="2480" y="1560" width="40" height="30" as="geometry" />
        </mxCell>
        <mxCell id="D4iVkZbgq93BNmRAAPy4-185" value="No" style="text;html=1;align=center;verticalAlign=middle;resizable=0;points=[];autosize=1;strokeColor=none;fillColor=none;" vertex="1" parent="mvioNwK95yMqdUQ73LqQ-36">
          <mxGeometry x="2590" y="1475" width="40" height="30" as="geometry" />
        </mxCell>
        <mxCell id="D4iVkZbgq93BNmRAAPy4-191" value="Yes" style="text;html=1;align=center;verticalAlign=middle;resizable=0;points=[];autosize=1;strokeColor=none;fillColor=none;" vertex="1" parent="mvioNwK95yMqdUQ73LqQ-36">
          <mxGeometry x="2699" y="1675" width="40" height="30" as="geometry" />
        </mxCell>
        <mxCell id="D4iVkZbgq93BNmRAAPy4-192" value="No" style="text;html=1;align=center;verticalAlign=middle;resizable=0;points=[];autosize=1;strokeColor=none;fillColor=none;" vertex="1" parent="mvioNwK95yMqdUQ73LqQ-36">
          <mxGeometry x="2809" y="1590" width="40" height="30" as="geometry" />
        </mxCell>
        <mxCell id="D4iVkZbgq93BNmRAAPy4-194" value="Yes" style="text;html=1;align=center;verticalAlign=middle;resizable=0;points=[];autosize=1;strokeColor=none;fillColor=none;" vertex="1" parent="mvioNwK95yMqdUQ73LqQ-36">
          <mxGeometry x="3030.5" y="1825" width="40" height="30" as="geometry" />
        </mxCell>
        <mxCell id="D4iVkZbgq93BNmRAAPy4-195" value="No" style="text;html=1;align=center;verticalAlign=middle;resizable=0;points=[];autosize=1;strokeColor=none;fillColor=none;" vertex="1" parent="mvioNwK95yMqdUQ73LqQ-36">
          <mxGeometry x="3140.5" y="1740" width="40" height="30" as="geometry" />
        </mxCell>
        <mxCell id="D4iVkZbgq93BNmRAAPy4-196" value="Yes" style="text;html=1;align=center;verticalAlign=middle;resizable=0;points=[];autosize=1;strokeColor=none;fillColor=none;" vertex="1" parent="mvioNwK95yMqdUQ73LqQ-36">
          <mxGeometry x="3320" y="2140" width="40" height="30" as="geometry" />
        </mxCell>
        <mxCell id="D4iVkZbgq93BNmRAAPy4-197" value="No" style="text;html=1;align=center;verticalAlign=middle;resizable=0;points=[];autosize=1;strokeColor=none;fillColor=none;" vertex="1" parent="mvioNwK95yMqdUQ73LqQ-36">
          <mxGeometry x="3440" y="2020" width="40" height="30" as="geometry" />
        </mxCell>
        <mxCell id="D4iVkZbgq93BNmRAAPy4-202" value="Yes" style="text;html=1;align=center;verticalAlign=middle;resizable=0;points=[];autosize=1;strokeColor=none;fillColor=none;" vertex="1" parent="mvioNwK95yMqdUQ73LqQ-36">
          <mxGeometry x="3620" y="2320" width="40" height="30" as="geometry" />
        </mxCell>
        <mxCell id="D4iVkZbgq93BNmRAAPy4-38" value="&lt;font data-font-src=&quot;https://fonts.googleapis.com/css?family=Sarabun&quot; face=&quot;Sarabun&quot;&gt;End&lt;/font&gt;" style="ellipse;whiteSpace=wrap;html=1;" vertex="1" parent="mvioNwK95yMqdUQ73LqQ-36">
          <mxGeometry x="636" y="1050" width="130" height="30" as="geometry" />
        </mxCell>
        <mxCell id="D4iVkZbgq93BNmRAAPy4-39" style="edgeStyle=orthogonalEdgeStyle;rounded=0;orthogonalLoop=1;jettySize=auto;html=1;entryX=0.5;entryY=0;entryDx=0;entryDy=0;exitX=0;exitY=0.5;exitDx=0;exitDy=0;" edge="1" parent="mvioNwK95yMqdUQ73LqQ-36" source="D4iVkZbgq93BNmRAAPy4-35" target="D4iVkZbgq93BNmRAAPy4-38">
          <mxGeometry relative="1" as="geometry">
            <Array as="points">
              <mxPoint x="360" y="280" />
              <mxPoint x="360" y="790" />
              <mxPoint x="701" y="790" />
            </Array>
          </mxGeometry>
        </mxCell>
        <mxCell id="D4iVkZbgq93BNmRAAPy4-40" value="No" style="text;html=1;align=center;verticalAlign=middle;resizable=0;points=[];autosize=1;strokeColor=none;fillColor=none;" vertex="1" parent="mvioNwK95yMqdUQ73LqQ-36">
          <mxGeometry x="605" y="240" width="40" height="30" as="geometry" />
        </mxCell>
        <mxCell id="D4iVkZbgq93BNmRAAPy4-37" value="Yes" style="text;html=1;align=center;verticalAlign=middle;resizable=0;points=[];autosize=1;strokeColor=none;fillColor=none;" vertex="1" parent="WIyWlLk6GJQsqaUBKTNV-1">
          <mxGeometry x="-370" y="308" width="40" height="30" as="geometry" />
        </mxCell>
        <mxCell id="D4iVkZbgq93BNmRAAPy4-58" style="edgeStyle=orthogonalEdgeStyle;rounded=0;orthogonalLoop=1;jettySize=auto;html=1;" edge="1" parent="WIyWlLk6GJQsqaUBKTNV-1" source="D4iVkZbgq93BNmRAAPy4-29">
          <mxGeometry relative="1" as="geometry">
            <mxPoint x="1775" y="1840" as="targetPoint" />
          </mxGeometry>
        </mxCell>
        <mxCell id="D4iVkZbgq93BNmRAAPy4-188" style="edgeStyle=orthogonalEdgeStyle;rounded=0;orthogonalLoop=1;jettySize=auto;html=1;" edge="1" parent="WIyWlLk6GJQsqaUBKTNV-1" source="D4iVkZbgq93BNmRAAPy4-29" target="D4iVkZbgq93BNmRAAPy4-30">
          <mxGeometry relative="1" as="geometry" />
        </mxCell>
        <mxCell id="D4iVkZbgq93BNmRAAPy4-29" value="number &amp;gt;= 9?" style="rhombus;whiteSpace=wrap;html=1;" vertex="1" parent="WIyWlLk6GJQsqaUBKTNV-1">
          <mxGeometry x="1720" y="1570" width="110" height="120" as="geometry" />
        </mxCell>
        <mxCell id="D4iVkZbgq93BNmRAAPy4-83" value="Yes" style="text;html=1;align=center;verticalAlign=middle;resizable=0;points=[];autosize=1;strokeColor=none;fillColor=none;" vertex="1" parent="WIyWlLk6GJQsqaUBKTNV-1">
          <mxGeometry x="-230" y="598" width="40" height="30" as="geometry" />
        </mxCell>
        <mxCell id="D4iVkZbgq93BNmRAAPy4-186" style="edgeStyle=orthogonalEdgeStyle;rounded=0;orthogonalLoop=1;jettySize=auto;html=1;entryX=0.5;entryY=0;entryDx=0;entryDy=0;" edge="1" parent="WIyWlLk6GJQsqaUBKTNV-1" source="D4iVkZbgq93BNmRAAPy4-26" target="D4iVkZbgq93BNmRAAPy4-29">
          <mxGeometry relative="1" as="geometry" />
        </mxCell>
        <mxCell id="D4iVkZbgq93BNmRAAPy4-201" value="No" style="text;html=1;align=center;verticalAlign=middle;resizable=0;points=[];autosize=1;strokeColor=none;fillColor=none;" vertex="1" parent="WIyWlLk6GJQsqaUBKTNV-1">
          <mxGeometry x="2690" y="2188" width="40" height="30" as="geometry" />
        </mxCell>
      </root>
    </mxGraphModel>
  </diagram>
</mxfile>
